<?xml version="1.0" encoding="UTF-8" standalone="no"?><!-- Generator: Gravit.io --><svg xmlns="http://www.w3.org/2000/svg" xmlns:xlink="http://www.w3.org/1999/xlink" style="isolation:isolate" viewBox="0 0 1440 900" width="1440pt" height="900pt"><defs><clipPath id="_clipPath_A8k5L9A72JieubAjUTh9Ic2SVFPN1RcB"><rect width="1440" height="900"/></clipPath></defs><g clip-path="url(#_clipPath_A8k5L9A72JieubAjUTh9Ic2SVFPN1RcB)"><path d=" M 114 371 C 123.737 362.463 121.353 395.891 123.602 408.644 C 130.137 445.695 135.325 484.625 138.737 522.156 C 144.846 555.753 145.241 561.711 146.304 567.561 C 146.623 569.311 152.853 587.206 148.827 575.128 C 138.006 542.665 133.341 515.182 128.647 489.363 C 117.563 428.398 120.18 374.827 128.647 360.716 C 156.148 314.881 204.267 362.116 191.709 393.509 C 172.649 441.16 156.214 471.886 138.737 489.363 C 128.641 499.459 138.346 484.808 138.737 484.318 C 138.737 484.318 153.872 469.183 153.872 469.183 C 176.271 452.384 207.709 449.868 219.457 461.616 C 252.894 495.053 224.581 537.619 211.889 552.426 C 187.253 581.168 158.923 615.488 138.737 615.488 C 129.272 615.488 125.985 596.639 128.647 595.308 C 136.695 591.284 151.693 589.69 161.439 587.74 C 197.892 580.45 230.002 561.209 244.682 542.336 C 275.863 502.246 293.21 471.223 297.654 449.003 C 300.626 434.143 303.318 415.592 305.221 413.689 C 308.247 410.663 317.834 427.601 317.834 426.301 C 317.834 421.057 301.226 421.397 297.654 423.779 C 278.666 436.437 270.45 464.818 279.997 476.751 C 297.244 498.31 325.663 516.849 338.014 504.498 C 356.883 485.629 347.921 458.729 340.536 443.958 C 331.089 425.063 328.374 421.706 325.401 418.734 C 324.634 417.966 307.744 403.239 307.744 411.166 C 307.744 412.181 314.355 418.096 315.311 418.734 C 316.876 419.776 318.573 421.851 320.356 421.256 C 346.771 412.451 368.213 402.852 380.896 385.941 C 394.719 367.511 403.11 358.213 411.166 368.284 C 423.673 383.918 410.874 369.107 418.734 380.896 C 423.779 388.464 428.824 396.031 428.824 396.031 C 428.824 385.425 404.205 370.806 396.031 370.806 C 370.637 370.806 369.134 406.422 373.329 416.211 C 385.431 444.449 405.412 464.847 418.734 451.526 C 439.113 431.146 436.378 393.495 426.301 383.419 C 421.256 378.374 413.689 373.329 413.689 373.329 C 409.035 371.002 417.875 380.896 421.256 380.896 C 421.256 380.896 433.869 373.329 433.869 373.329 C 459.03 335.586 455.901 300.493 459.093 274.952 C 462.024 251.51 462.984 212.404 459.093 239.637 C 456.571 257.294 456.571 307.744 456.571 307.744 C 456.571 307.744 461.616 373.329 461.616 373.329 C 469.667 405.532 492.195 442.397 504.498 413.689 C 520.246 376.944 522.156 351.076 522.156 330.446 C 522.156 326.044 524.084 331.185 524.678 332.969 C 530.766 351.231 522.034 335.321 534.768 353.149 C 536.53 355.616 537.102 359.36 539.813 360.716 C 551.344 366.482 568.501 325.102 570.083 320.356 C 573.2 311.005 576.447 313.867 577.651 315.311 C 580.789 319.078 583.496 323.333 585.218 327.924 C 589.272 338.733 597.83 374.817 597.83 385.941 C 597.83 465.061 563.805 542.644 534.768 549.903 C 522.854 552.882 519.633 551.783 519.633 549.903 C 519.633 542.969 522.59 536.335 524.678 529.723 C 540.241 480.442 529.594 522.849 552.426 464.138 C 583.268 384.829 599.319 352.694 615.488 320.356 C 625.776 299.78 648.522 296.688 653.325 277.474 C 664.229 233.859 661.693 188.266 650.803 166.484 C 644.569 154.016 639.893 156.874 638.19 158.917 C 635.292 162.395 634.244 167.137 633.145 171.529 C 630.804 180.896 627.887 218.558 628.1 221.979 C 633.234 304.111 633.145 346.559 633.145 388.464 C 633.145 419.546 631.756 388.975 633.145 383.419 C 642.156 347.375 654.071 289.59 668.46 279.997 C 677.427 274.019 680.321 273.447 681.073 274.952 C 683.36 279.526 683.231 284.985 683.595 290.087 C 683.86 293.792 683.297 330.587 683.595 332.969 C 688.245 370.167 699.032 379.653 711.343 363.239 C 719.681 352.121 738.641 322.655 744.135 325.401 C 760.17 333.419 768.05 342.752 774.405 327.924 C 775.886 324.468 779.45 321.594 779.45 317.834 C 779.45 294.285 775.084 252.249 759.27 252.249 C 738.214 252.249 729.588 295.55 731.522 305.221 C 735.875 326.986 753.801 338.579 761.792 327.924 C 782.759 299.968 792.711 276.754 797.107 254.772 C 808.55 197.559 817.287 161.526 817.287 128.647 C 817.287 112.956 815.492 104.619 809.72 108.467 C 809.72 108.467 802.152 131.17 802.152 131.17 C 793.717 181.782 798.195 226.722 802.152 262.339 C 807.196 307.73 824.62 322.619 847.557 312.789 C 888.358 295.303 900.872 253.868 903.052 232.069 C 906.005 202.538 907.869 149.51 898.007 179.097 C 881.973 227.198 895.715 274.853 930.799 259.817 C 950.642 251.313 995.326 220.189 983.772 214.412 L 978.727 211.889 L 973.682 214.412" fill="none" vector-effect="non-scaling-stroke" stroke-width="1" stroke="rgb(0,0,0)" stroke-linejoin="miter" stroke-linecap="square" stroke-miterlimit="3"/><path d=" M 358 290.087 C 354.334 293.491 369.798 286.387 373.329 287.564 C 373.329 287.564 388.464 292.609 388.464 292.609 C 391.25 293.803 393.509 295.972 396.031 297.654 C 420.348 301.128 427.25 301.38 433.869 300.176 C 468.189 293.936 515.86 275.416 542.336 252.249 C 579.172 220.017 563.906 206.381 547.381 211.889 C 538.816 214.744 545.102 219.213 542.336 221.979" fill="none" vector-effect="non-scaling-stroke" stroke-width="1" stroke="rgb(0,0,0)" stroke-linejoin="miter" stroke-linecap="square" stroke-miterlimit="3"/></g></svg>