<?xml version="1.0" encoding="UTF-8" standalone="no"?><!-- Generator: Gravit.io --><svg xmlns="http://www.w3.org/2000/svg" xmlns:xlink="http://www.w3.org/1999/xlink" style="isolation:isolate" viewBox="0 0 1280 800" width="1280pt" height="800pt"><defs><clipPath id="_clipPath_Skc2VOeetKfhjllHIdk1ST1t6B9EZxS7"><rect width="1280" height="800"/></clipPath></defs><g clip-path="url(#_clipPath_Skc2VOeetKfhjllHIdk1ST1t6B9EZxS7)"><path d=" M 816.466 113.793 C 783.453 115.81 753.076 132.501 733.67 159.286 C 714.265 186.07 707.868 220.135 716.236 252.134 L 521.973 353.508 C 499.693 326.097 465.65 310.991 430.377 312.865 C 369.661 316.55 323.324 368.583 326.67 429.318 C 330.176 489.862 382.58 536.53 443.124 533.024 C 478.577 530.836 510.805 511.702 529.7 481.623 L 734.521 558.786 C 733.184 566.615 732.726 574.57 733.155 582.501 C 736.661 643.045 789.065 689.713 849.608 686.207 C 910.152 682.702 956.82 630.298 953.315 569.754 C 949.809 509.21 897.405 462.542 836.862 466.048 C 801.408 468.237 769.18 487.371 750.286 517.449 L 545.433 440.509 C 546.774 432.605 547.243 424.577 546.83 416.571 C 546.351 408.293 544.871 400.294 542.661 392.646 L 735.959 291.372 C 758.145 320.044 793.016 335.966 829.213 333.952 C 889.757 330.447 936.425 278.043 932.92 217.499 C 929.414 156.955 877.01 110.287 816.466 113.793 Z  M 819.016 157.824 C 855.827 155.693 886.757 183.238 888.888 220.048 C 891.019 256.859 863.475 287.789 826.664 289.92 C 809.118 291.055 791.849 285.111 778.718 273.417 C 765.587 261.724 757.69 245.256 756.792 227.696 C 754.661 190.886 782.205 159.956 819.016 157.824 Z  M 432.926 356.897 C 469.737 354.765 500.667 382.31 502.798 419.12 C 504.929 455.931 477.385 486.861 440.574 488.992 C 423.028 490.127 405.759 484.183 392.628 472.489 C 379.498 460.796 371.6 444.328 370.702 426.768 C 368.571 389.958 396.115 359.028 432.926 356.897 Z  M 839.411 510.08 C 876.222 507.949 907.152 535.493 909.283 572.304 C 911.414 609.114 883.87 640.044 847.059 642.176 C 829.513 643.31 812.244 637.366 799.113 625.673 C 785.982 613.979 778.085 597.512 777.187 579.952 C 775.056 543.141 802.6 512.211 839.411 510.08 Z " fill="rgb(0,0,0)"/></g></svg>