<?xml version="1.0" encoding="UTF-8" standalone="no"?>
<!DOCTYPE svg PUBLIC "-//W3C//DTD SVG 1.1//EN" "http://www.w3.org/Graphics/SVG/1.1/DTD/svg11.dtd">
<svg version="1.1" xmlns="http://www.w3.org/2000/svg" xmlns:xlink="http://www.w3.org/1999/xlink" preserveAspectRatio="xMidYMid meet" viewBox="0 0 640 640" width="640" height="640"><defs><path d="M177.13 309.81C174.57 355.38 152.48 402.64 110.86 451.58C170.19 428.55 217.11 426.42 251.62 445.21C286.13 463.99 305.03 515.39 308.33 599.42C321.91 521.69 344.68 477.78 376.63 467.69C408.58 457.61 452.92 469.63 509.63 503.76C465.6 457.99 448.54 420.49 458.45 391.27C468.35 362.05 505.22 341.11 569.06 328.44C520.08 315.86 490.64 293.39 480.73 261.04C470.83 228.69 480.46 186.45 509.63 134.33C456.43 168.18 413.05 178.66 379.5 165.79C345.95 152.92 322.22 116.69 308.33 57.11L273.7 223.87L126.19 178.16C162.71 220.36 179.69 264.24 177.13 309.81Z" id="aa7Www1dl"></path><path d="M160.06 208.75C132.9 256.06 82.62 289 9.24 307.57C87.42 337.17 137.69 376.67 160.06 426.07C182.42 475.47 176.89 534.76 143.45 603.95C207.27 551.31 264.74 527.78 315.87 533.35C366.99 538.91 411.77 573.58 450.2 637.34C434.8 562.08 440.84 508.1 468.32 475.4C495.8 442.7 544.72 431.29 615.08 441.15C552.97 402.27 523.99 361.62 528.15 319.18C532.3 276.74 569.58 232.52 640 186.51C563.16 206.9 508.45 200.4 475.86 167.01C443.26 133.61 427.04 80.28 427.19 7.02C396.42 42.25 377.19 64.28 369.49 73.09C339.36 107.59 287.59 112.68 251.31 84.71C240.76 76.58 214.4 56.25 172.21 23.71C191.27 99.76 187.22 161.44 160.06 208.75Z" id="dTrlLV0mq"></path><radialGradient id="gradientb4xa9d7vDE" gradientUnits="userSpaceOnUse" cx="324.62" cy="308.69" dx="342.34" dy="615.3" r="307.12"><stop style="stop-color: #ffffff;stop-opacity: 1" offset="0%"></stop><stop style="stop-color: #ff9b00;stop-opacity: 1" offset="100%"></stop></radialGradient><path d="M528.15 319.18C528.15 437.38 440.22 533.35 331.91 533.35C223.61 533.35 135.68 437.38 135.68 319.18C135.68 200.97 223.61 105.01 331.91 105.01C440.22 105.01 528.15 200.97 528.15 319.18Z" id="a1mRcOiR7"></path><radialGradient id="gradientb7ivYJjKs" gradientUnits="userSpaceOnUse" cx="337.58" cy="319.18" dx="370.18" dy="659.86" r="342.23"><stop style="stop-color: #463df8;stop-opacity: 1" offset="0%"></stop><stop style="stop-color: #ce0000;stop-opacity: 1" offset="100%"></stop></radialGradient><path d="M165.45 203.03L218.6 492.31L400.81 518.48L508.36 409.66L512.16 236.09L395.75 116.25L233.78 134.15" id="a58ny5gq2J"></path><path d="M192.81 348.38L312.04 505.22L457.1 460.88L509.76 322.18L453.13 175.32L312.04 125.56L165.45 206.68" id="ckta8WmNo"></path><path d="M255.41 430.59L390.54 481.43L485.92 385.16L479.96 244.54L379.61 149.36L235.54 169.91L192.81 348.38" id="a6DBU6SEc"></path><path d="M321.98 454.39L437.23 436L481.94 310.52L430.28 199.11L310.06 160.17L215.67 255.36L255.41 430.59" id="lldCZZo2I"></path><path d="M381.59 444.65L461.08 366.77L456.11 254.28L367.68 179.64L262.36 208.85L236.53 345.14L280.56 399.74L324.62 454.39" id="bEwaOJrOJ"></path><path d="M422.33 403.55L458.1 307.28L413.39 218.58L316.02 194.79L251.43 269.42L278.26 397.06L334.08 421.94L382.59 443.57" id="lmKLnIo8"></path><path d="M442.2 349.46L437.23 266.18L366.69 207.77L286.21 232.64L266.34 335.4L328.93 418.69L425.31 402.47" id="bURdGz1S5"></path><path d="M438.23 307.28L402.46 238.05L324.62 221.83L278.26 281.32L299.13 377.59L373.64 411.12L442.2 349.46" id="b6xiP9UEtj"></path><path d="M420.34 272.67L367.68 231.56L302.11 253.2L290.18 332.16L331.91 391.65L407.43 378.67L423.68 340.99L438.23 307.28" id="csmaSixvw"></path><path d="M390.54 249.95L337.61 243.46L297.14 292.14L312.04 360.28L370.66 384.08L421.34 341.89L418.36 271.58" id="gec4xF6bT"></path><path d="M306.08 328.26L338.81 371.1L395.5 362.44L418.36 307.28L390.54 249.95" id="a5Gtq8uJTj"></path><path d="M367.68 365.69L405.44 334.32L405.44 282.4L364.21 246.71L319.99 266.18L306.08 328.26" id="a1uOS33sf8"></path><path d="M385.57 265.09L339.96 257.52L314.03 296.46L320.99 348.38L367.68 365.69" id="bYDnY1xNB"></path><path d="M362.22 261.85L327.94 279.16L319.99 322.18L344.83 355.95L385.57 350.55L405.44 310.52L385.57 265.09" id="d6mDqeAr8Q"></path><path d="M345.82 271.58L324.62 298.63L331.91 339.73L366.69 352.71L395.5 332.16L395.5 289.97L362.22 261.85" id="dOTCGRXdW"></path><path d="M334.9 284.56L328.93 319.18L349.8 346.22L382.59 342.97L395.5 311.61L379.61 278.07L345.82 271.58" id="bhFe1zxGQ"></path></defs><g><g><g><use xlink:href="#aa7Www1dl" opacity="1" fill="#fcff00" fill-opacity="1"></use><g><use xlink:href="#aa7Www1dl" opacity="1" fill-opacity="0" stroke="#000000" stroke-width="4" stroke-opacity="1"></use></g></g><g><use xlink:href="#dTrlLV0mq" opacity="1" fill="url(#gradientb4xa9d7vDE)"></use><g><use xlink:href="#dTrlLV0mq" opacity="1" fill-opacity="0" stroke="#000000" stroke-width="4" stroke-opacity="1"></use></g></g><g><use xlink:href="#a1mRcOiR7" opacity="1" fill="url(#gradientb7ivYJjKs)"></use><g><use xlink:href="#a1mRcOiR7" opacity="1" fill-opacity="0" stroke="#000000" stroke-width="3" stroke-opacity="1"></use></g></g><g><g><use xlink:href="#a58ny5gq2J" opacity="1" fill-opacity="0" stroke="#000000" stroke-width="3" stroke-opacity="1"></use></g></g><g><g><use xlink:href="#ckta8WmNo" opacity="1" fill-opacity="0" stroke="#000000" stroke-width="3" stroke-opacity="1"></use></g></g><g><g><use xlink:href="#a6DBU6SEc" opacity="1" fill-opacity="0" stroke="#000000" stroke-width="3" stroke-opacity="1"></use></g></g><g><g><use xlink:href="#lldCZZo2I" opacity="1" fill-opacity="0" stroke="#000000" stroke-width="3" stroke-opacity="1"></use></g></g><g><g><use xlink:href="#bEwaOJrOJ" opacity="1" fill-opacity="0" stroke="#000000" stroke-width="3" stroke-opacity="1"></use></g></g><g><g><use xlink:href="#lmKLnIo8" opacity="1" fill-opacity="0" stroke="#000000" stroke-width="3" stroke-opacity="1"></use></g></g><g><g><use xlink:href="#bURdGz1S5" opacity="1" fill-opacity="0" stroke="#000000" stroke-width="3" stroke-opacity="1"></use></g></g><g><g><use xlink:href="#b6xiP9UEtj" opacity="1" fill-opacity="0" stroke="#000000" stroke-width="3" stroke-opacity="1"></use></g></g><g><g><use xlink:href="#csmaSixvw" opacity="1" fill-opacity="0" stroke="#000000" stroke-width="3" stroke-opacity="1"></use></g></g><g><g><use xlink:href="#gec4xF6bT" opacity="1" fill-opacity="0" stroke="#000000" stroke-width="3" stroke-opacity="1"></use></g></g><g><g><use xlink:href="#a5Gtq8uJTj" opacity="1" fill-opacity="0" stroke="#000000" stroke-width="3" stroke-opacity="1"></use></g></g><g><g><use xlink:href="#a1uOS33sf8" opacity="1" fill-opacity="0" stroke="#000000" stroke-width="3" stroke-opacity="1"></use></g></g><g><g><use xlink:href="#bYDnY1xNB" opacity="1" fill-opacity="0" stroke="#000000" stroke-width="3" stroke-opacity="1"></use></g></g><g><g><use xlink:href="#d6mDqeAr8Q" opacity="1" fill-opacity="0" stroke="#000000" stroke-width="3" stroke-opacity="1"></use></g></g><g><g><use xlink:href="#dOTCGRXdW" opacity="1" fill-opacity="0" stroke="#000000" stroke-width="3" stroke-opacity="1"></use></g></g><g><g><use xlink:href="#bhFe1zxGQ" opacity="1" fill-opacity="0" stroke="#000000" stroke-width="3" stroke-opacity="1"></use></g></g></g></g></svg>