<?xml version="1.0" encoding="UTF-8" standalone="no"?>
<!DOCTYPE svg PUBLIC "-//W3C//DTD SVG 1.1//EN" "http://www.w3.org/Graphics/SVG/1.1/DTD/svg11.dtd">
<svg version="1.1" xmlns="http://www.w3.org/2000/svg" xmlns:xlink="http://www.w3.org/1999/xlink" preserveAspectRatio="xMidYMid meet" viewBox="0 0 640 640" width="640" height="640"><defs><path d="M-95.38 486.62C46.02 457.61 138.45 456 181.9 481.78C225.35 507.56 261.96 554.19 291.73 621.68C318.65 559.27 360.12 509.42 416.13 472.12C472.14 434.83 542.7 410.08 627.81 397.89C541.94 351.66 474.47 295.76 425.39 230.2C376.32 164.63 345.64 89.4 333.35 4.5C312.02 64.36 274.33 112.88 220.28 150.05C166.23 187.21 95.82 213.03 9.05 227.5" id="cmj23znq1"></path><path d="M86 398.68C116.23 383.3 152.39 356.47 177.32 283.25C193.94 234.44 196.74 175.28 185.73 105.79C234.73 151.97 285.66 185.33 338.53 205.88C391.41 226.42 446.21 234.15 502.96 229.07C462.05 270.04 438.06 313.96 430.99 360.81C423.93 407.66 433.78 457.45 460.55 510.18C399 481.46 341.92 469.13 289.31 473.19C236.7 477.25 188.56 497.69 144.9 534.52C169.73 474.13 170.83 418.15 148.19 366.59C125.55 315.03 79.17 267.88 9.05 225.15" id="b3yBpzDedk"></path><path d="" id="b3SgOUJ1x"></path><path d="M139.4 243.21C181.41 252.07 220.28 250.61 256 238.83C291.73 227.05 324.32 204.95 353.76 172.54C355.2 220.33 366.65 260.58 388.12 293.3C409.58 326.02 441.05 351.2 482.54 368.84C433.47 374.77 394.73 390.42 366.33 415.81C337.93 441.2 319.87 476.32 312.15 521.17C290 476.02 259.95 443.04 222 422.23C184.05 401.42 138.19 392.79 84.43 396.32" id="c1QYkeyanY"></path><path d="M249.33 207.87C273.31 234.28 299.49 252.84 327.89 263.58C356.29 274.31 386.9 277.2 419.72 272.26C397.72 298.49 384.62 326.19 380.43 355.38C376.24 384.56 380.97 415.22 394.6 447.36C381.29 444.25 372.98 442.31 369.65 441.53C322.08 430.4 272.52 430.95 225.2 443.11C220.14 444.41 207.51 447.66 187.3 452.86C204.18 415.77 208.63 379.76 200.65 344.82C192.66 309.87 172.25 276 139.4 243.21" id="a2zxeL7n1S"></path><path d="M340.42 243.21C338.51 270.16 343.11 293.46 354.24 313.09C365.36 332.72 383 348.69 407.16 360.99C377.71 362.96 353.37 371.34 334.13 386.13C314.9 400.91 300.76 422.11 291.73 449.72C282.19 418.7 266.63 394.62 245.04 377.48C223.44 360.33 195.82 350.13 162.17 346.85C196.22 335.61 220.51 318.4 235.04 295.24C249.57 272.07 254.33 242.95 249.33 207.87" id="bvQUUCiQW"></path><path d="M374.18 302.1C359 317.51 349.31 333.86 345.13 351.13C340.94 368.41 342.25 386.61 349.05 405.75C328.99 390.98 308.82 382.94 288.53 381.63C268.25 380.32 247.85 385.74 227.34 397.89C241.71 372.9 247.45 349.86 244.57 328.79C241.69 307.72 230.19 288.62 210.07 271.47C235.88 281.06 259.65 283.49 281.38 278.78C303.1 274.07 322.78 262.21 340.42 243.21" id="d10N8D2KIF"></path><path d="M361.62 355.49C345 354.91 330.6 358.42 318.43 366.01C306.26 373.6 296.31 385.27 288.59 401.03C281.29 381.8 271.94 366.62 260.55 355.49C249.17 344.37 235.74 337.3 220.28 334.29C237.13 328.19 250.01 318.8 258.91 306.1C267.81 293.41 272.73 277.41 273.67 258.12C286.76 275.46 301.68 287.8 318.43 295.13C335.18 302.45 353.76 304.78 374.18 302.1" id="c1gmrNiPDg"></path><path d="M324.71 377.48C312.26 369.14 300.08 364 288.17 362.03C276.26 360.07 264.62 361.29 253.26 365.7C260.46 353.79 263.74 342.01 263.09 330.36C262.43 318.72 257.85 307.2 249.33 295.82C264.64 301.18 278.91 302.81 292.12 300.71C305.34 298.62 317.51 292.8 328.64 283.25C325.73 298.69 327.02 312.44 332.52 324.48C338.01 336.52 347.71 346.85 361.62 355.49" id="a2nTUEXxda"></path><path d="M287.02 370.41C283.9 360.91 279.39 352.82 273.5 346.15C267.61 339.47 260.34 334.21 251.69 330.36C262.01 325.52 269.93 319.76 275.42 313.09C280.92 306.42 284 298.83 284.67 290.32C294.13 300.53 303.89 308.12 313.97 313.09C324.05 318.06 334.43 320.42 345.13 320.16C336.08 327.93 329.85 336.59 326.45 346.15C323.05 355.7 322.47 366.14 324.71 377.48" id="b548M470I0"></path><path d="M269.35 349.21C273.54 343.31 275.64 337.03 275.64 330.36C275.64 323.7 273.54 316.66 269.35 309.24C277.72 312.33 285.7 313.61 293.29 313.09C300.88 312.57 308.09 310.24 314.9 306.1C314.05 314.05 315.22 321.61 318.43 328.79C321.64 335.98 326.87 342.78 334.13 349.21C325.04 347.82 316.57 348.9 308.71 352.43C300.86 355.96 293.63 361.96 287.02 370.41" id="a8q4oy7l3n"></path><path d="M269.35 328.79C273.42 326.29 277.36 323.42 281.15 320.16C284.95 316.9 288.6 313.26 292.12 309.24C295.79 316.14 300.24 321.22 305.47 324.48C310.71 327.73 316.73 329.17 323.53 328.79C316.49 330.25 312.05 333.4 310.22 338.26C308.39 343.11 309.16 349.67 312.54 357.93C305.01 352 297.64 348.31 290.44 346.85C283.25 345.4 276.22 346.19 269.35 349.21" id="dFwa1hITe"></path><path d="M279.56 320.16L308.61 320.16L318.43 342.22L289.77 352.43L269.35 328.79" id="d2BQW04en4"></path></defs><g><g><g><use xlink:href="#cmj23znq1" opacity="0.32" fill="#fcff00" fill-opacity="1"></use><g><use xlink:href="#cmj23znq1" opacity="0.32" fill-opacity="0" stroke="#000000" stroke-width="4" stroke-opacity="1"></use></g></g><g><use xlink:href="#b3yBpzDedk" opacity="0.27" fill="#b4ff00" fill-opacity="1"></use><g><use xlink:href="#b3yBpzDedk" opacity="0.27" fill-opacity="0" stroke="#000000" stroke-width="4" stroke-opacity="1"></use></g></g><g><use xlink:href="#b3SgOUJ1x" opacity="0.49" fill="#09ff00" fill-opacity="1"></use><g><use xlink:href="#b3SgOUJ1x" opacity="0.49" fill-opacity="0" stroke="#000000" stroke-width="4" stroke-opacity="1"></use></g></g><g><use xlink:href="#c1QYkeyanY" opacity="0.44" fill="#00ff75" fill-opacity="1"></use><g><use xlink:href="#c1QYkeyanY" opacity="0.44" fill-opacity="0" stroke="#000000" stroke-width="4" stroke-opacity="1"></use></g></g><g><use xlink:href="#a2zxeL7n1S" opacity="0.43" fill="#00ffea" fill-opacity="1"></use><g><use xlink:href="#a2zxeL7n1S" opacity="0.43" fill-opacity="0" stroke="#000000" stroke-width="4" stroke-opacity="1"></use></g></g><g><use xlink:href="#bvQUUCiQW" opacity="1" fill="#00ccff" fill-opacity="0.6"></use><g><use xlink:href="#bvQUUCiQW" opacity="1" fill-opacity="0" stroke="#000000" stroke-width="4" stroke-opacity="0.49"></use></g></g><g><use xlink:href="#d10N8D2KIF" opacity="0.38" fill="#0069ff" fill-opacity="1"></use><g><use xlink:href="#d10N8D2KIF" opacity="0.38" fill-opacity="0" stroke="#000000" stroke-width="4" stroke-opacity="1"></use></g></g><g><use xlink:href="#c1gmrNiPDg" opacity="0.47" fill="#4b00ff" fill-opacity="1"></use><g><use xlink:href="#c1gmrNiPDg" opacity="0.47" fill-opacity="0" stroke="#000000" stroke-width="4" stroke-opacity="1"></use></g></g><g><use xlink:href="#a2nTUEXxda" opacity="0.36" fill="#b700ff" fill-opacity="1"></use><g><use xlink:href="#a2nTUEXxda" opacity="0.36" fill-opacity="0" stroke="#000000" stroke-width="4" stroke-opacity="1"></use></g></g><g><use xlink:href="#b548M470I0" opacity="0.4" fill="#c000ff" fill-opacity="1"></use><g><use xlink:href="#b548M470I0" opacity="0.4" fill-opacity="0" stroke="#000000" stroke-width="4" stroke-opacity="1"></use></g></g><g><use xlink:href="#a8q4oy7l3n" opacity="0.52" fill="#ff00ff" fill-opacity="1"></use><g><use xlink:href="#a8q4oy7l3n" opacity="0.52" fill-opacity="0" stroke="#000000" stroke-width="4" stroke-opacity="1"></use></g></g><g><use xlink:href="#dFwa1hITe" opacity="0.3" fill="#ff0081" fill-opacity="1"></use><g><use xlink:href="#dFwa1hITe" opacity="0.3" fill-opacity="0" stroke="#000000" stroke-width="4" stroke-opacity="1"></use></g></g><g><use xlink:href="#d2BQW04en4" opacity="0.4" fill="#ff0000" fill-opacity="1"></use><g><use xlink:href="#d2BQW04en4" opacity="0.4" fill-opacity="0" stroke="#000000" stroke-width="4" stroke-opacity="1"></use></g></g></g></g></svg>